<svg width="318" height="211" viewBox="0 0 318 211" fill="none" xmlns="http://www.w3.org/2000/svg">
<g clip-path="url(#clip0_19_223)">
<path d="M114.067 121.432C124.965 102.292 145.753 87.5953 167.758 89.0111C151.526 106.635 142.061 129.423 141.037 153.344C140.676 162.571 141.236 172.871 135.1 179.78C131.282 184.079 125.447 186.161 119.709 186.597C113.971 187.034 108.234 185.999 102.573 184.968L101.2 185.389C100.677 163.379 103.169 140.573 114.067 121.432Z" fill="#F0F0F0"/>
<path d="M167.791 89.4719C151.518 97.2934 137.642 110.356 129.125 126.287C127.283 129.731 125.715 133.385 125.031 137.249C124.347 141.114 124.825 144.793 126.147 148.464C127.356 151.82 128.982 155.113 129.352 158.704C129.743 162.489 128.348 166.029 125.837 168.837C122.765 172.274 118.639 174.404 114.532 176.346C109.972 178.503 105.201 180.671 101.971 184.697C101.58 185.185 100.845 184.55 101.236 184.063C106.855 177.059 116.474 175.743 123.144 170.101C126.257 167.468 128.594 163.883 128.446 159.682C128.317 156.009 126.644 152.612 125.39 149.224C124.074 145.667 123.418 142.091 123.89 138.299C124.373 134.419 125.801 130.697 127.546 127.22C131.482 119.381 136.869 112.184 143.039 105.962C150.131 98.8103 158.396 92.9227 167.476 88.5537C168.039 88.2835 168.35 89.2035 167.791 89.4719Z" fill="white"/>
<path d="M131.62 120.963C129.125 119.142 127.36 116.494 126.64 113.494C125.92 110.493 126.291 107.335 127.688 104.582C127.973 104.026 128.851 104.442 128.566 104.998C127.261 107.559 126.915 110.501 127.591 113.294C128.268 116.087 129.922 118.546 132.255 120.228C132.761 120.595 132.123 121.327 131.62 120.963Z" fill="white"/>
<path d="M125.31 146.843C131.561 145.931 137.238 142.7 141.209 137.795C141.602 137.308 142.338 137.943 141.945 138.429C137.803 143.526 131.888 146.876 125.381 147.811C124.761 147.9 124.693 146.931 125.31 146.843Z" fill="white"/>
<path d="M150.611 100.004C151.43 100.91 152.46 101.598 153.611 102.008C154.761 102.417 155.996 102.535 157.203 102.351C157.822 102.254 157.889 103.223 157.274 103.318C155.939 103.516 154.576 103.384 153.304 102.935C152.032 102.485 150.889 101.731 149.976 100.739C149.882 100.653 149.825 100.534 149.816 100.407C149.806 100.28 149.846 100.154 149.926 100.055C150.011 99.9577 150.13 99.8981 150.258 99.8887C150.387 99.8793 150.514 99.9208 150.611 100.004Z" fill="white"/>
<path d="M211.543 149.392C211.159 149.463 210.774 149.534 210.386 149.613C205.219 150.597 200.14 151.999 195.2 153.804C194.816 153.938 194.429 154.079 194.049 154.223C182.195 158.699 171.275 165.334 161.846 173.79C158.097 177.158 154.611 180.806 151.416 184.702C147.005 190.084 142.65 196.269 136.885 199.778C136.288 200.15 135.668 200.486 135.029 200.782L101.821 187.029C101.761 186.96 101.698 186.899 101.637 186.829L100.286 186.341C100.437 186.128 100.598 185.911 100.749 185.699C100.836 185.575 100.93 185.455 101.017 185.331C101.077 185.25 101.138 185.168 101.187 185.091C101.207 185.064 101.228 185.037 101.245 185.018C101.294 184.941 101.349 184.874 101.395 184.805C102.291 183.589 103.197 182.377 104.113 181.17C104.116 181.162 104.116 181.162 104.127 181.157C111.131 171.973 118.964 163.292 127.868 156.074C128.136 155.857 128.407 155.632 128.69 155.421C132.721 152.19 137.011 149.293 141.515 146.759C143.986 145.38 146.525 144.126 149.123 143.003C155.841 140.114 162.973 138.298 170.256 137.622C184.775 136.276 199.564 139.581 210.7 148.688C210.984 148.921 211.262 149.151 211.543 149.392Z" fill="#F0F0F0"/>
<path d="M211.294 149.782C193.584 146.245 174.628 148.334 158.22 155.934C154.673 157.577 151.218 159.552 148.342 162.225C145.465 164.9 143.628 168.125 142.47 171.851C141.411 175.257 140.724 178.864 138.854 181.954C136.884 185.211 133.636 187.198 129.937 187.931C125.412 188.829 120.833 188.049 116.383 187.131C111.441 186.112 106.324 184.976 101.318 186.248C100.711 186.402 100.507 185.454 101.113 185.3C109.823 183.086 118.297 187.817 127.025 187.322C131.098 187.091 135.126 185.633 137.541 182.19C139.653 179.18 140.365 175.461 141.407 172.003C142.502 168.372 144.134 165.122 146.798 162.378C149.523 159.57 152.908 157.456 156.397 155.73C164.268 151.837 172.909 149.328 181.587 148.07C191.562 146.622 201.712 146.89 211.596 148.86C212.208 148.982 211.902 149.903 211.294 149.782Z" fill="white"/>
<path d="M163.423 153.182C162.529 150.229 162.716 147.054 163.951 144.225C165.185 141.396 167.387 139.098 170.162 137.74C170.724 137.467 171.175 138.327 170.612 138.6C168.026 139.86 165.975 142.001 164.831 144.638C163.687 147.274 163.525 150.232 164.373 152.978C164.557 153.575 163.606 153.776 163.423 153.182Z" fill="white"/>
<path d="M142.779 170.053C148.32 173.083 154.801 173.916 160.93 172.386C161.537 172.234 161.742 173.183 161.135 173.335C154.754 174.915 148.011 174.034 142.252 170.869C141.703 170.567 142.233 169.753 142.779 170.053Z" fill="white"/>
<path d="M191.226 147.864C191.333 149.079 191.741 150.248 192.412 151.267C193.084 152.286 193.998 153.122 195.074 153.7C195.626 153.995 195.096 154.809 194.547 154.516C193.362 153.871 192.353 152.946 191.608 151.823C190.864 150.699 190.406 149.41 190.276 148.069C190.253 147.944 190.278 147.814 190.347 147.707C190.417 147.6 190.524 147.523 190.648 147.492C190.774 147.466 190.905 147.49 191.013 147.56C191.121 147.629 191.198 147.739 191.226 147.864Z" fill="white"/>
<path d="M148.283 172.082C143.632 149.63 137.818 142.144 137.818 142.144L135.597 140.424L132.927 138.353L132.94 138.087L132.306 137.872L132.157 137.756L131.913 137.569L131.874 137.612L131.791 137.697L119.706 133.595L104.373 128.395L97.2726 119.181C96.1163 117.681 94.6275 116.468 92.9231 115.638C91.2187 114.808 89.3449 114.383 87.4486 114.397L64.7731 114.565C61.7072 114.587 58.7606 115.754 56.5126 117.836L41.6084 131.639L18.3848 142.713L18.3456 142.674L18.1017 142.848L14.5135 144.561L14.6615 145.33L12.4406 146.93C12.4406 146.93 6.62712 153.896 1.97629 174.787C0.793171 180.103 0.210797 191.506 0.000590722 205.557C-0.0099679 206.268 0.121112 206.974 0.386207 207.633C0.651301 208.293 1.04512 208.894 1.54477 209.4C2.04442 209.907 2.63993 210.309 3.29667 210.584C3.95341 210.858 4.65828 211 5.3703 211H129.412L144.894 211C145.606 211 146.31 210.858 146.967 210.584C147.623 210.31 148.218 209.908 148.718 209.402C149.217 208.896 149.611 208.296 149.877 207.637C150.142 206.978 150.274 206.273 150.264 205.563C150.059 190.272 149.477 177.846 148.283 172.082Z" fill="#3F3D56"/>
<path d="M164.198 19.58C159.372 19.58 154.744 21.4941 151.331 24.9012C147.919 28.3083 146.001 32.9293 146.001 37.7476C146.001 42.566 147.919 47.187 151.331 50.5941C154.744 54.0012 159.372 55.9152 164.198 55.9152H299.804C304.63 55.9152 309.258 54.0012 312.67 50.5941C316.083 47.187 318 42.566 318 37.7476C318 32.9293 316.083 28.3083 312.67 24.9012C309.258 21.4941 304.63 19.58 299.804 19.58H164.198Z" fill="#E5E5E5"/>
<path d="M164.198 23.2568C160.349 23.2568 156.657 24.7835 153.935 27.501C151.213 30.2186 149.684 33.9044 149.684 37.7476C149.684 41.5908 151.213 45.2766 153.935 47.9942C156.657 50.7118 160.349 52.2385 164.198 52.2385H299.804C303.653 52.2385 307.344 50.7118 310.066 47.9942C312.788 45.2766 314.317 41.5908 314.317 37.7476C314.317 33.9044 312.788 30.2186 310.066 27.501C307.344 24.7835 303.653 23.2568 299.804 23.2568H164.198Z" fill="white"/>
<path d="M79.6719 105.892C96.0786 105.892 109.379 92.6124 109.379 76.2316C109.379 59.8507 96.0786 46.5714 79.6719 46.5714C63.2651 46.5714 49.9648 59.8507 49.9648 76.2316C49.9648 92.6124 63.2651 105.892 79.6719 105.892Z" fill="#9E616A"/>
<path d="M72.0723 104.439C71.9454 104.16 71.8188 103.881 71.6926 103.6C71.7413 103.601 71.7894 103.608 71.838 103.609L72.0723 104.439Z" fill="#2F2E41"/>
<path d="M49.1386 47.9202C50.6411 46.7235 52.3971 45.6224 54.3182 45.6843C56.2391 45.7461 58.1871 47.4784 57.7891 49.3557C61.3176 43.1181 66.9338 38.3207 73.652 35.8055C80.3703 33.2904 87.7611 33.2182 94.5273 35.6016C99.3018 37.2834 103.984 40.648 105.081 45.5829C105.362 46.8496 105.423 48.2387 106.215 49.2674C107.214 50.5643 109.125 50.8577 110.698 50.4015C110.714 50.3969 110.73 50.3923 110.746 50.3876C111.011 50.2969 111.298 50.288 111.569 50.362C111.84 50.436 112.083 50.5894 112.265 50.8025C112.448 51.0156 112.563 51.2785 112.594 51.5572C112.625 51.8359 112.572 52.1176 112.442 52.3659L111.091 54.8814C112.794 55.2603 114.563 55.2228 116.248 54.7718C116.528 54.6985 116.824 54.7135 117.095 54.8147C117.366 54.9159 117.599 55.0983 117.762 55.337C117.926 55.5757 118.011 55.8589 118.006 56.1478C118.002 56.4368 117.908 56.7172 117.737 56.9508C113.283 63.0569 105.841 66.9999 98.2465 66.9536C92.8489 66.9207 87.3957 65.0634 82.1426 66.3027C80.1104 66.7821 78.2115 67.7097 76.5851 69.0175C74.9588 70.3252 73.6464 71.9799 72.7441 73.8601C71.8418 75.7403 71.3726 77.7984 71.3708 79.8833C71.3691 81.9682 71.8349 84.027 72.7341 85.9087C71.1203 84.1464 68.0007 84.5636 66.3499 86.2916C64.6992 88.0195 64.2719 90.5985 64.4382 92.9807C64.6925 96.6241 66.1223 100.057 67.6295 103.399C54.9925 103.001 43.04 94.1506 39.0167 82.1798C34.9766 70.1589 39.2108 55.8274 49.1386 47.9202Z" fill="#2F2E41"/>
<path opacity="0.2" d="M29.2395 165.303L37.5716 210.565L42.5711 211L29.2395 165.303Z" fill="black"/>
<path opacity="0.2" d="M121.02 161.89L112.687 210.533L107.688 211L121.02 161.89Z" fill="black"/>
<path d="M56.2453 32.6873C54.6478 33.3533 52.9808 32.6234 52.2817 30.9518C51.5719 29.2546 52.2348 27.5318 53.858 26.8551C55.4813 26.1783 57.1186 26.91 57.8399 28.6345C58.5503 30.3332 57.8946 31.9997 56.2453 32.6873ZM53.1851 23.5145L51.9148 24.0441C51.5975 24.1748 51.2426 24.1818 50.9203 24.0638C50.598 23.9458 50.3318 23.7113 50.1744 23.4067L50.1116 23.284C48.7448 20.823 48.5883 17.8319 49.6489 14.3986C50.6314 11.3188 51.0395 9.15273 50.2188 7.19041C49.27 4.9216 47.2438 4.21089 44.6599 5.24043C43.6578 5.65823 43.3389 5.65157 42.5503 6.43268C42.3787 6.60465 42.1742 6.74037 41.949 6.83175C41.7238 6.92312 41.4825 6.96828 41.2394 6.96453C41.0044 6.96177 40.7724 6.91179 40.5572 6.81757C40.342 6.72335 40.1479 6.58682 39.9867 6.41613C39.6761 6.08719 39.5021 5.65281 39.4998 5.20072C39.4975 4.74864 39.6671 4.31253 39.9744 3.98047C41.3 2.59505 42.8988 1.499 44.6699 0.761499C50.2215 -1.55299 53.0162 1.86402 54.2951 4.92193C55.546 7.91292 54.8423 10.6881 53.7117 14.2821C52.7643 17.2686 52.8195 19.4815 53.8957 21.6818C53.9734 21.8482 54.0166 22.0285 54.0228 22.2119C54.029 22.3954 53.9979 22.5782 53.9316 22.7493C53.8652 22.9205 53.7649 23.0765 53.6366 23.208C53.5083 23.3395 53.3547 23.4437 53.1851 23.5145Z" fill="#E863FF"/>
<path d="M194.151 46.4123H167.171C167.085 46.4129 167 46.3966 166.921 46.3642C166.841 46.3319 166.769 46.2842 166.709 46.2239C166.648 46.1636 166.599 46.0918 166.566 46.0128C166.534 45.9338 166.517 45.8491 166.517 45.7635C166.517 45.6779 166.534 45.5932 166.566 45.5142C166.599 45.4352 166.648 45.3634 166.709 45.3031C166.769 45.2428 166.841 45.1951 166.921 45.1628C167 45.1304 167.085 45.1141 167.171 45.1147H194.151C194.323 45.1158 194.487 45.1847 194.608 45.3062C194.729 45.4278 194.797 45.5922 194.797 45.7635C194.797 45.9348 194.729 46.0992 194.608 46.2207C194.487 46.3423 194.323 46.4112 194.151 46.4123Z" fill="#E863FF"/>
<path d="M228.378 46.6286H201.397C201.312 46.6292 201.227 46.6128 201.147 46.5805C201.068 46.5481 200.996 46.5004 200.935 46.4401C200.874 46.3798 200.826 46.3081 200.793 46.2291C200.76 46.1501 200.743 46.0653 200.743 45.9798C200.743 45.8942 200.76 45.8094 200.793 45.7304C200.826 45.6514 200.874 45.5797 200.935 45.5194C200.996 45.4591 201.068 45.4114 201.147 45.379C201.227 45.3467 201.312 45.3303 201.397 45.3309H228.378C228.463 45.3303 228.548 45.3467 228.628 45.379C228.707 45.4114 228.779 45.4591 228.84 45.5194C228.901 45.5797 228.949 45.6514 228.982 45.7304C229.015 45.8094 229.032 45.8942 229.032 45.9798C229.032 46.0653 229.015 46.1501 228.982 46.2291C228.949 46.3081 228.901 46.3798 228.84 46.4401C228.779 46.5004 228.707 46.5481 228.628 46.5805C228.548 46.6128 228.463 46.6292 228.378 46.6286Z" fill="#E863FF"/>
<path d="M262.604 46.8449H235.624C235.452 46.8437 235.288 46.7749 235.167 46.6533C235.046 46.5317 234.978 46.3674 234.978 46.196C234.978 46.0247 235.046 45.8604 235.167 45.7388C235.288 45.6172 235.452 45.5484 235.624 45.5472H262.604C262.69 45.5466 262.775 45.563 262.854 45.5953C262.934 45.6277 263.006 45.6754 263.067 45.7357C263.127 45.796 263.176 45.8677 263.209 45.9467C263.242 46.0257 263.259 46.1105 263.259 46.196C263.259 46.2816 263.242 46.3664 263.209 46.4454C263.176 46.5244 263.127 46.5961 263.067 46.6564C263.006 46.7167 262.934 46.7644 262.854 46.7968C262.775 46.8291 262.69 46.8455 262.604 46.8449Z" fill="#E863FF"/>
<path d="M296.831 47.0612H269.85C269.678 47.06 269.514 46.9911 269.393 46.8696C269.272 46.748 269.205 46.5836 269.205 46.4123C269.205 46.241 269.272 46.0766 269.393 45.9551C269.514 45.8335 269.678 45.7646 269.85 45.7635H296.831C297.002 45.7646 297.166 45.8335 297.287 45.9551C297.408 46.0766 297.476 46.241 297.476 46.4123C297.476 46.5836 297.408 46.748 297.287 46.8696C297.166 46.9911 297.002 47.06 296.831 47.0612Z" fill="#E863FF"/>
<path d="M180.602 40.4409C183.371 40.4409 185.616 38.1994 185.616 35.4343C185.616 32.6692 183.371 30.4277 180.602 30.4277C177.832 30.4277 175.587 32.6692 175.587 35.4343C175.587 38.1994 177.832 40.4409 180.602 40.4409Z" fill="#E863FF"/>
<path d="M215.035 40.4409C217.804 40.4409 220.05 38.1994 220.05 35.4343C220.05 32.6692 217.804 30.4277 215.035 30.4277C212.266 30.4277 210.021 32.6692 210.021 35.4343C210.021 38.1994 212.266 40.4409 215.035 40.4409Z" fill="#E863FF"/>
<path d="M249.468 40.4409C252.238 40.4409 254.483 38.1994 254.483 35.4343C254.483 32.6692 252.238 30.4277 249.468 30.4277C246.699 30.4277 244.454 32.6692 244.454 35.4343C244.454 38.1994 246.699 40.4409 249.468 40.4409Z" fill="#E863FF"/>
<path d="M283.901 40.4409C286.671 40.4409 288.916 38.1994 288.916 35.4343C288.916 32.6692 286.671 30.4277 283.901 30.4277C281.132 30.4277 278.887 32.6692 278.887 35.4343C278.887 38.1994 281.132 40.4409 283.901 40.4409Z" fill="#E863FF"/>
</g>
<defs>
<clipPath id="clip0_19_223">
<rect width="318" height="211" fill="white"/>
</clipPath>
</defs>
</svg>
