<svg width="233" height="209" viewBox="0 0 233 209" fill="none" xmlns="http://www.w3.org/2000/svg">
<g clip-path="url(#clip0_19_280)">
<path d="M230.956 79.9258C230.872 79.9259 230.791 79.9003 230.723 79.8526L117.673 1.18131C117.329 0.943015 116.92 0.815665 116.502 0.816378C116.083 0.817092 115.675 0.945833 115.331 1.1853L3.09626 79.8518C3.00749 79.9141 2.89762 79.9385 2.79082 79.9198C2.68402 79.901 2.58903 79.8407 2.52677 79.752C2.4645 79.6633 2.44005 79.5535 2.45879 79.4468C2.47754 79.34 2.53794 79.2451 2.62672 79.1829L114.862 0.516364C115.343 0.181159 115.914 0.000970082 116.5 7.69002e-06C117.086 -0.000954702 117.659 0.177354 118.14 0.510979L231.19 79.1821C231.261 79.2318 231.315 79.303 231.343 79.3853C231.371 79.4677 231.372 79.5568 231.346 79.6398C231.32 79.7228 231.268 79.7952 231.198 79.8467C231.128 79.8981 231.043 79.9259 230.956 79.9258Z" fill="#3F3D56"/>
<path d="M9.50977 82.7145L116.613 3.398L224.529 88.3582L122.131 149.015L66.5384 136.353L9.50977 82.7145Z" fill="#E6E6E6"/>
<path d="M71.2307 186.48H18.3192C17.9943 186.48 17.6725 186.417 17.3722 186.293C17.0719 186.169 16.799 185.987 16.5692 185.758C16.3393 185.528 16.1569 185.256 16.0325 184.956C15.908 184.656 15.844 184.334 15.844 184.01C15.844 183.685 15.908 183.364 16.0325 183.064C16.1569 182.764 16.3393 182.491 16.5692 182.262C16.799 182.033 17.0719 181.851 17.3722 181.727C17.6725 181.603 17.9943 181.539 18.3192 181.54H71.2307C71.5556 181.539 71.8774 181.603 72.1777 181.727C72.478 181.851 72.7509 182.033 72.9808 182.262C73.2106 182.491 73.393 182.764 73.5174 183.064C73.6419 183.364 73.7059 183.685 73.7059 184.01C73.7059 184.334 73.6419 184.656 73.5174 184.956C73.393 185.256 73.2106 185.528 72.9808 185.758C72.7509 185.987 72.478 186.169 72.1777 186.293C71.8774 186.417 71.5556 186.48 71.2307 186.48Z" fill="#E863FF"/>
<path d="M37.3027 175.86H18.3192C17.9943 175.86 17.6725 175.797 17.3722 175.673C17.0719 175.549 16.799 175.367 16.5692 175.138C16.3393 174.908 16.1569 174.636 16.0325 174.336C15.908 174.036 15.844 173.714 15.844 173.39C15.844 173.065 15.908 172.744 16.0325 172.444C16.1569 172.144 16.3393 171.871 16.5692 171.642C16.799 171.413 17.0719 171.231 17.3722 171.107C17.6725 170.983 17.9943 170.919 18.3192 170.92H37.3027C37.6276 170.919 37.9493 170.983 38.2496 171.107C38.5499 171.231 38.8228 171.413 39.0527 171.642C39.2826 171.871 39.4649 172.144 39.5894 172.444C39.7138 172.744 39.7778 173.065 39.7778 173.39C39.7778 173.714 39.7138 174.036 39.5894 174.336C39.4649 174.636 39.2826 174.908 39.0527 175.138C38.8228 175.367 38.5499 175.549 38.2496 175.673C37.9493 175.797 37.6276 175.86 37.3027 175.86Z" fill="#E863FF"/>
<path d="M118.119 126.893C117.717 126.893 117.318 126.815 116.946 126.663L50.8921 99.2763V13.5506C50.893 12.7926 51.1947 12.0658 51.7311 11.5298C52.2676 10.9938 52.9949 10.6922 53.7535 10.6914H180.473C181.231 10.6922 181.959 10.9938 182.495 11.5298C183.032 12.0658 183.333 12.7926 183.334 13.5506V99.3361L183.21 99.3892L119.327 126.65C118.944 126.81 118.534 126.893 118.119 126.893Z" fill="white"/>
<path d="M118.119 127.097C117.69 127.097 117.265 127.014 116.868 126.852L50.6877 99.4127V13.5506C50.6887 12.7384 51.012 11.9597 51.5867 11.3854C52.1615 10.8111 52.9407 10.488 53.7535 10.4871H180.473C181.286 10.488 182.065 10.8111 182.64 11.3854C183.214 11.9597 183.538 12.7384 183.539 13.5506V99.4709L119.407 126.838C118.999 127.009 118.561 127.097 118.119 127.097ZM51.5053 98.867L117.18 126.097C117.792 126.345 118.478 126.341 119.088 126.086L182.721 98.9316V13.5506C182.72 12.955 182.483 12.384 182.062 11.9628C181.64 11.5417 181.069 11.3047 180.473 11.304H53.7535C53.1575 11.3047 52.5861 11.5417 52.1646 11.9628C51.7431 12.384 51.506 12.955 51.5053 13.5506L51.5053 98.867Z" fill="#3F3D56"/>
<path d="M230.139 79.1089H230.057L183.13 99.1317L118.924 126.527C118.673 126.633 118.404 126.688 118.132 126.689C117.86 126.691 117.59 126.638 117.338 126.535L51.0965 99.0746L3.01669 79.1416L2.94324 79.1089H2.8614C2.10277 79.1097 1.37545 79.4113 0.839013 79.9473C0.302578 80.4833 0.000841764 81.2101 0 81.9681V206.141C0.000842844 206.899 0.302578 207.626 0.839013 208.162C1.37545 208.698 2.10277 208.999 2.8614 209H230.139C230.897 208.999 231.625 208.698 232.161 208.162C232.697 207.626 232.999 206.899 233 206.141V81.9681C232.999 81.2101 232.697 80.4833 232.161 79.9473C231.625 79.4113 230.897 79.1097 230.139 79.1089ZM232.182 206.141C232.182 206.682 231.967 207.202 231.584 207.585C231.2 207.968 230.681 208.183 230.139 208.183H2.8614C2.3194 208.183 1.79967 207.968 1.41642 207.585C1.03317 207.202 0.817761 206.682 0.817544 206.141V81.9681C0.818285 81.44 1.0233 80.9326 1.38973 80.552C1.75617 80.1714 2.25564 79.947 2.78376 79.9258L51.0965 99.9568L117.023 127.291C117.737 127.581 118.537 127.577 119.247 127.279L183.13 100.018L230.22 79.9258C230.748 79.9486 231.246 80.1736 231.611 80.5539C231.977 80.9343 232.181 81.4408 232.182 81.9681V206.141Z" fill="#3F3D56"/>
<path d="M117.459 102.584C115.02 102.589 112.646 101.801 110.695 100.339L110.574 100.248L85.1031 80.7617C83.9235 79.8586 82.9335 78.7321 82.1895 77.4466C81.4456 76.1612 80.9623 74.7419 80.7673 73.2698C80.5723 71.7977 80.6694 70.3016 81.053 68.867C81.4366 67.4324 82.0992 66.0873 83.003 64.9086C83.9068 63.7299 85.0341 62.7406 86.3206 61.9972C87.607 61.2538 89.0274 60.7709 90.5006 60.5761C91.9738 60.3812 93.471 60.4782 94.9067 60.8615C96.3424 61.2448 97.6885 61.907 98.8681 62.8101L115.366 75.4511L154.354 24.6438C155.258 23.4653 156.386 22.4764 157.673 21.7335C158.959 20.9906 160.38 20.5082 161.853 20.3138C163.327 20.1195 164.824 20.217 166.259 20.6009C167.695 20.9848 169.041 21.6474 170.22 22.551L169.977 22.8799L170.226 22.5558C172.605 24.3827 174.161 27.0778 174.554 30.05C174.947 33.0221 174.143 36.0285 172.321 38.4096L126.462 98.1712C125.401 99.5483 124.037 100.663 122.476 101.428C120.914 102.193 119.198 102.589 117.459 102.584Z" fill="#E863FF"/>
</g>
<defs>
<clipPath id="clip0_19_280">
<rect width="233" height="209" fill="white"/>
</clipPath>
</defs>
</svg>
