<svg width="233" height="227" viewBox="0 0 233 227" fill="none" xmlns="http://www.w3.org/2000/svg">
<g clip-path="url(#clip0_19_362)">
<path d="M148.611 50.8852H136.214V156.559C136.214 158.217 135.887 159.859 135.252 161.391C134.618 162.922 133.688 164.314 132.515 165.487C131.342 166.659 129.95 167.589 128.418 168.224C126.886 168.858 125.244 169.185 123.586 169.185H28.8027V169.305C28.8027 170.963 29.1293 172.605 29.764 174.137C30.3986 175.669 31.3287 177.061 32.5013 178.233C33.674 179.405 35.066 180.335 36.5981 180.97C38.1302 181.604 39.7723 181.931 41.4306 181.931H148.611C150.269 181.931 151.911 181.604 153.444 180.97C154.976 180.335 156.368 179.405 157.54 178.233C158.713 177.061 159.643 175.669 160.278 174.137C160.912 172.605 161.239 170.963 161.239 169.305V63.5106C161.239 60.1621 159.909 56.9508 157.54 54.5831C155.172 52.2154 151.96 50.8852 148.611 50.8852Z" fill="#F2F2F2"/>
<path d="M207.38 218.817C207.6 218.828 207.817 218.77 208.003 218.652C208.188 218.535 208.333 218.363 208.418 218.161C208.503 217.958 208.523 217.734 208.477 217.519C208.43 217.305 208.318 217.11 208.157 216.961L208.084 216.669C208.093 216.645 208.103 216.622 208.113 216.599C208.334 216.077 208.704 215.631 209.178 215.319C209.651 215.007 210.206 214.841 210.773 214.843C211.34 214.845 211.894 215.015 212.365 215.331C212.836 215.647 213.203 216.095 213.421 216.618C214.289 218.709 215.394 220.803 215.666 223.013C215.786 223.99 215.735 224.981 215.517 225.94C217.556 221.493 218.615 216.66 218.621 211.768C218.622 210.54 218.554 209.314 218.417 208.094C218.304 207.094 218.148 206.101 217.947 205.115C216.855 199.766 214.508 194.752 211.101 190.485C209.452 189.586 208.118 188.202 207.279 186.521C206.976 185.917 206.761 185.272 206.642 184.607C206.828 184.631 207.344 181.798 207.203 181.624C207.462 181.231 207.926 181.036 208.21 180.652C209.618 178.743 211.558 179.076 212.571 181.67C214.734 182.762 214.755 184.573 213.428 186.314C212.583 187.422 212.467 188.921 211.726 190.107C211.802 190.205 211.882 190.299 211.958 190.397C213.351 192.189 214.566 194.113 215.585 196.141C215.337 193.869 215.632 191.57 216.447 189.433C217.272 187.442 218.82 185.766 220.182 184.044C220.542 183.582 221.032 183.237 221.588 183.053C222.145 182.868 222.743 182.853 223.309 183.009C223.874 183.165 224.38 183.484 224.764 183.928C225.147 184.371 225.39 184.918 225.463 185.5C225.466 185.525 225.468 185.551 225.471 185.576C225.269 185.69 225.071 185.811 224.877 185.94C224.633 186.102 224.445 186.335 224.335 186.606C224.226 186.878 224.202 187.176 224.265 187.462C224.328 187.748 224.477 188.008 224.69 188.208C224.904 188.409 225.173 188.539 225.463 188.584L225.492 188.589C225.42 189.318 225.293 190.041 225.111 190.75C226.859 197.509 223.085 199.97 217.697 200.081C217.578 200.142 217.462 200.203 217.343 200.261C218.367 203.16 219.008 206.179 219.253 209.243C219.391 211.051 219.383 212.867 219.228 214.674L219.237 214.61C219.628 212.601 220.7 210.788 222.272 209.478C224.607 207.56 227.906 206.854 230.425 205.312C230.693 205.141 231.005 205.049 231.323 205.048C231.641 205.047 231.953 205.137 232.221 205.308C232.49 205.479 232.704 205.722 232.839 206.011C232.973 206.299 233.022 206.62 232.981 206.935L232.97 207.002C232.595 207.155 232.229 207.331 231.875 207.53C231.673 207.644 231.475 207.765 231.281 207.893C231.038 208.056 230.849 208.288 230.74 208.56C230.631 208.832 230.606 209.13 230.669 209.416C230.733 209.702 230.881 209.962 231.095 210.162C231.308 210.362 231.578 210.493 231.867 210.538L231.897 210.542C231.918 210.545 231.936 210.548 231.958 210.551C231.316 212.083 230.415 213.493 229.295 214.72C228.202 220.619 223.508 221.179 218.487 219.461H218.484C217.933 221.855 217.135 224.184 216.102 226.413H207.594C207.563 226.318 207.536 226.221 207.508 226.126C208.296 226.176 209.086 226.129 209.863 225.986C209.231 225.212 208.6 224.431 207.969 223.657C207.955 223.642 207.941 223.627 207.929 223.611C207.609 223.214 207.286 222.821 206.965 222.425L206.965 222.424C206.948 221.209 207.088 219.997 207.38 218.817Z" fill="#F2F2F2"/>
<path d="M113.664 36.5106C113.975 36.9812 114.384 37.3786 114.863 37.6755C115.343 37.9725 115.881 38.1617 116.441 38.2302C117 38.2987 117.568 38.2448 118.105 38.0723C118.642 37.8997 119.135 37.6127 119.55 37.2309L137.24 45.2104L140.651 40.861L119.571 31.5372C118.876 30.8866 117.967 30.5134 117.015 30.4882C116.064 30.4631 115.136 30.7878 114.408 31.4009C113.68 32.0139 113.202 32.8727 113.065 33.8144C112.928 34.7562 113.141 35.7155 113.664 36.5106Z" fill="#A0616A"/>
<path d="M189.582 41.4863L191.337 51.4266C191.418 51.8903 191.402 52.366 191.289 52.8232C191.177 53.2804 190.969 53.7089 190.681 54.0813C190.393 54.4536 190.03 54.7616 189.615 54.9854C189.201 55.2092 188.744 55.3438 188.274 55.3808L158.462 57.7247L123.419 42.0442L127.604 34.1004L158.025 43.7319L189.582 41.4863Z" fill="#E863FF"/>
<path d="M119.808 34.3623H12.6279C5.6537 34.3623 0 40.0149 0 46.9877V152.782C0 159.755 5.6537 165.408 12.6279 165.408H119.808C126.783 165.408 132.436 159.755 132.436 152.782V46.9877C132.436 40.0149 126.783 34.3623 119.808 34.3623Z" fill="#F2F2F2"/>
<path d="M12.6279 36.9587C11.3106 36.9587 10.0062 37.2181 8.78919 37.7221C7.57218 38.2261 6.46638 38.9649 5.53492 39.8961C4.60346 40.8274 3.86458 41.933 3.36048 43.1498C2.85637 44.3665 2.59692 45.6707 2.59692 46.9877V152.783C2.59692 155.442 3.65375 157.993 5.53492 159.874C7.41609 161.755 9.9675 162.812 12.6279 162.812H81.033C87.4423 162.812 93.7889 161.549 99.7103 159.097C105.632 156.645 111.012 153.051 115.544 148.519C120.076 143.988 123.671 138.609 126.124 132.689C128.577 126.768 129.839 120.423 129.839 114.015V46.9877C129.839 45.6707 129.58 44.3665 129.076 43.1498C128.571 41.933 127.833 40.8274 126.901 39.8961C125.97 38.9649 124.864 38.2261 123.647 37.7221C122.43 37.2181 121.125 36.9587 119.808 36.9587H12.6279Z" fill="white"/>
<path d="M96.1799 69.0657H36.0218C35.4698 69.0657 34.9404 68.8464 34.55 68.4562C34.1597 68.0659 33.9404 67.5366 33.9404 66.9847C33.9404 66.4328 34.1597 65.9035 34.55 65.5132C34.9404 65.123 35.4698 64.9038 36.0218 64.9038H96.1799C96.7319 64.9038 97.2613 65.123 97.6517 65.5132C98.042 65.9035 98.2613 66.4328 98.2613 66.9847C98.2613 67.5366 98.042 68.0659 97.6517 68.4562C97.2613 68.8464 96.7319 69.0657 96.1799 69.0657Z" fill="#F2F2F2"/>
<path d="M96.1799 113.441H36.0218C35.4698 113.441 34.9404 113.222 34.55 112.832C34.1597 112.442 33.9404 111.912 33.9404 111.36C33.9404 110.809 34.1597 110.279 34.55 109.889C34.9404 109.499 35.4698 109.28 36.0218 109.28H96.1799C96.7319 109.28 97.2613 109.499 97.6517 109.889C98.042 110.279 98.2613 110.809 98.2613 111.36C98.2613 111.912 98.042 112.442 97.6517 112.832C97.2613 113.222 96.7319 113.441 96.1799 113.441Z" fill="#F2F2F2"/>
<path d="M120.609 91.2681H11.5928C11.0408 91.2681 10.5114 91.0488 10.1211 90.6586C9.73076 90.2683 9.51147 89.739 9.51147 89.1871C9.51147 88.6352 9.73076 88.1059 10.1211 87.7157C10.5114 87.3254 11.0408 87.1062 11.5928 87.1062H120.609C121.161 87.1062 121.69 87.3254 122.081 87.7157C122.471 88.1059 122.69 88.6352 122.69 89.1871C122.69 89.739 122.471 90.2683 122.081 90.6586C121.69 91.0488 121.161 91.2681 120.609 91.2681Z" fill="#F2F2F2"/>
<path d="M185.816 85.2992L174.956 108.431L216.732 104.201L208.012 81.9946L185.816 85.2992Z" fill="#A0616A"/>
<path d="M195.528 218.253L191.567 218.22L189.814 202.589L195.659 202.638L195.528 218.253Z" fill="#A0616A"/>
<path d="M182.841 224.55C182.837 225.02 183.02 225.471 183.349 225.806C183.678 226.141 184.127 226.332 184.596 226.336L192.472 226.402L193.85 223.608L194.357 226.416L197.328 226.443L196.578 216.427L195.544 216.358L191.327 216.068L189.967 215.977L189.943 218.811L183.617 223.101C183.38 223.261 183.185 223.477 183.05 223.73C182.915 223.982 182.843 224.264 182.841 224.55Z" fill="#2F2E41"/>
<path d="M151.694 218.271L147.917 217.075L150.835 201.619L156.408 203.384L151.694 218.271Z" fill="#A0616A"/>
<path d="M137.716 220.563C137.574 221.011 137.617 221.497 137.833 221.913C138.049 222.33 138.422 222.644 138.869 222.786L146.377 225.162L148.516 222.897L148.175 225.73L151.008 226.629L153.234 216.834L152.266 216.465L148.32 214.948L147.047 214.461L146.191 217.163L138.883 219.406C138.61 219.49 138.36 219.639 138.157 219.841C137.954 220.042 137.802 220.29 137.716 220.563Z" fill="#2F2E41"/>
<path d="M214.829 97.6958L176.844 104.655C176.844 104.655 170.752 109.211 172.381 110.843C174.011 112.475 174.264 112.222 173.193 113.293C172.122 114.363 169.807 115.794 169.784 116.731C169.762 117.668 152.763 159.683 152.763 159.683C152.763 159.683 154.652 158.739 153.235 160.155C151.819 161.571 151.819 162.742 151.819 162.742L145.208 207.363L155.944 207.995L166.456 167.314L189.904 129.31C189.904 129.31 192.231 163.2 192.328 165.454C192.426 167.708 193.843 164.876 192.426 167.708C191.009 170.541 190.065 168.653 191.009 170.541C191.954 172.429 187.608 210.873 187.608 210.873H197.407L218.423 131.19C218.423 131.19 225.9 108.409 214.829 97.6958Z" fill="#2F2E41"/>
<path d="M203.639 33.959L188.424 32.3784L184.481 37.4954L179.889 39.9409C177.946 40.9758 176.341 42.5485 175.268 44.4708C174.195 46.3932 173.699 48.5839 173.838 50.781L179.205 81.9946C179.205 81.9946 174.672 92.2006 177.789 94.7409C180.905 97.2811 175.379 103.572 182.038 100.406C188.698 97.2395 217.451 100.878 217.451 100.878L211.313 83.4109L215.899 66.2471L216.403 51.8555C216.498 49.1663 215.699 46.5213 214.133 44.333C212.567 42.1447 210.32 40.536 207.744 39.7576L207.103 39.5639L203.639 33.959Z" fill="#E863FF"/>
<path d="M224.587 22.2965C224.687 26.5845 223.084 30.7364 220.782 34.3833C220.097 32.2543 218.868 30.3166 217.585 28.4695C218.231 32.4654 217.543 36.5628 215.625 40.1279C215.558 40.1762 215.488 40.2211 215.416 40.2624C213.539 41.3911 211.159 41.8483 209.129 41.0331C213.324 36.5121 213.858 29.0215 210.341 23.9504C209.345 22.5115 208.057 21.2389 207.441 19.6014C206.467 16.9887 207.403 14.112 207.993 11.3879C208.545 8.85262 208.642 5.83562 206.941 3.97758C207.123 3.71792 207.37 3.51123 207.658 3.37869C207.946 3.24616 208.264 3.19253 208.579 3.22332C209.628 3.37145 210.392 4.28298 210.878 5.22179C211.364 6.16058 211.685 7.20108 212.363 8.01196C213.618 9.52971 215.755 9.88854 217.556 10.6884C221.918 12.6309 224.483 17.5252 224.587 22.2965Z" fill="#2F2E41"/>
<path d="M112.213 226.438C112.213 226.512 112.227 226.585 112.255 226.653C112.283 226.722 112.325 226.784 112.377 226.836C112.429 226.888 112.491 226.93 112.56 226.958C112.628 226.986 112.701 227 112.775 227H232.372C232.521 227 232.664 226.941 232.769 226.835C232.875 226.73 232.934 226.587 232.934 226.438C232.934 226.289 232.875 226.146 232.769 226.041C232.664 225.936 232.521 225.876 232.372 225.876H112.775C112.701 225.876 112.628 225.891 112.56 225.919C112.491 225.947 112.429 225.988 112.377 226.04C112.325 226.093 112.283 226.155 112.255 226.223C112.227 226.291 112.213 226.364 112.213 226.438Z" fill="#CCCCCC"/>
<path d="M225.529 121.678C227.876 121.678 229.778 119.776 229.778 117.429C229.778 115.083 227.876 113.181 225.529 113.181C223.182 113.181 221.279 115.083 221.279 117.429C221.279 119.776 223.182 121.678 225.529 121.678Z" fill="#E863FF"/>
<path d="M187.872 19.8449C188.121 18.9727 186.403 24.3043 187.232 24.4006C191.008 24.8337 196.191 27.0882 198.821 28.14C198.939 28.1263 199.058 28.1125 199.173 28.0953C199.455 28.0644 199.73 28.0197 200.002 27.9682C206.125 26.8098 208.48 17.4053 208.48 17.3193C208.48 16.8966 207.465 5.28455 205.866 5.11271C205.447 5.06716 205.024 5.04421 204.602 5.04396H200.635C199.814 4.86709 198.982 4.74651 198.144 4.68305H198.137C190.15 4.07465 183.853 8.94182 184.441 14.8643C184.445 14.8711 184.452 14.878 184.455 14.8849C184.626 15.1393 184.776 15.3799 184.908 15.6102C185.037 15.8267 185.145 16.0329 185.239 16.2289C185.967 17.7413 184.096 19.6444 185.336 19.9996C186.987 20.472 180.996 36.0001 187.528 36.0001C184.351 36.9033 187.184 22.251 187.872 19.8449Z" fill="#2F2E41"/>
<path d="M195.002 28.9561C200.19 28.9561 204.395 24.7514 204.395 19.5647C204.395 14.378 200.19 10.1733 195.002 10.1733C189.814 10.1733 185.609 14.378 185.609 19.5647C185.609 24.7514 189.814 28.9561 195.002 28.9561Z" fill="#A0616A"/>
<path d="M184.441 15.3764C184.598 15.4589 184.751 15.5345 184.908 15.6101C185.072 15.6892 185.235 15.7683 185.399 15.8404C188.544 17.2669 191.105 17.425 192.658 15.3764C192.7 14.2985 192.942 13.2377 193.372 12.2485C193.296 13.354 193.588 14.4536 194.201 15.3764H197.329C200.551 17.5144 202.205 17.7378 199.969 24.7567C199.346 26.7125 196.867 38.0934 197.842 39.7811C198.124 39.7502 201.126 27.2846 201.397 27.2331C207.521 26.0747 211.412 15.9882 210.914 15.4176C210.916 13.7951 210.543 12.1939 209.823 10.7395C208.913 8.89687 207.494 7.35342 205.734 6.29167C204.685 5.78309 203.591 5.37232 202.467 5.06455C202.439 5.05767 202.414 5.05079 202.387 5.04393C202.042 4.95111 201.69 4.86518 201.338 4.793C200.611 4.63957 199.876 4.52824 199.137 4.45959C199.085 4.45615 199.032 4.4527 198.984 4.4527C198.688 4.45339 198.398 4.5329 198.144 4.68302C198.141 4.68302 198.141 4.68644 198.137 4.68644C197.955 4.79261 197.797 4.93401 197.67 5.10234C197.448 5.38556 197.328 5.7356 197.329 6.09572H193.846C193.717 6.09572 193.588 6.09915 193.459 6.10602C191.134 6.18545 188.923 7.12937 187.258 8.75305C185.592 10.3767 184.593 12.5633 184.455 14.8849C184.445 15.0499 184.441 15.2114 184.441 15.3764Z" fill="#2F2E41"/>
<path d="M204.979 12.3742C208.397 12.3742 211.167 9.60415 211.167 6.18711C211.167 2.77006 208.397 0 204.979 0C201.561 0 198.791 2.77006 198.791 6.18711C198.791 9.60415 201.561 12.3742 204.979 12.3742Z" fill="#2F2E41"/>
<path d="M225.577 119.181C225.879 118.705 226.074 118.169 226.148 117.61C226.222 117.051 226.175 116.483 226.008 115.944C225.841 115.406 225.559 114.91 225.181 114.491C224.804 114.072 224.34 113.74 223.822 113.518L223.852 94.115L218.486 92.787L218.619 115.833C218.31 116.733 218.342 117.715 218.709 118.593C219.076 119.471 219.752 120.184 220.61 120.597C221.468 121.01 222.447 121.094 223.362 120.833C224.278 120.572 225.066 119.984 225.577 119.181Z" fill="#A0616A"/>
<path d="M199.004 47.9056L207.354 42.2319C207.744 41.9672 208.185 41.7869 208.648 41.7025C209.111 41.6181 209.587 41.6316 210.045 41.7419C210.503 41.8523 210.933 42.0572 211.307 42.3434C211.681 42.6296 211.991 42.9909 212.217 43.404L226.573 69.6323L226.628 108.017L217.665 107.456L213.986 75.7652L199.004 47.9056Z" fill="#E863FF"/>
<path d="M134.875 134.958H45.6337C43.6926 134.958 41.8311 135.729 40.4585 137.101C39.086 138.473 38.3149 140.334 38.3149 142.275C38.3149 144.216 39.086 146.077 40.4585 147.449C41.8311 148.821 43.6926 149.592 45.6337 149.592H134.875C136.816 149.592 138.677 148.821 140.05 147.449C141.422 146.077 142.193 144.216 142.193 142.275C142.193 140.334 141.422 138.473 140.05 137.101C138.677 135.729 136.816 134.958 134.875 134.958Z" fill="white"/>
<path d="M134.875 150.064H45.6337C43.5674 150.064 41.5857 149.244 40.1247 147.783C38.6636 146.322 37.8428 144.341 37.8428 142.275C37.8428 140.209 38.6636 138.228 40.1247 136.767C41.5857 135.306 43.5674 134.486 45.6337 134.486H134.875C136.941 134.486 138.923 135.306 140.384 136.767C141.845 138.228 142.666 140.209 142.666 142.275C142.666 144.341 141.845 146.322 140.384 147.783C138.923 149.244 136.941 150.064 134.875 150.064ZM45.6337 135.43C43.8178 135.43 42.0764 136.151 40.7924 137.435C39.5085 138.719 38.7871 140.46 38.7871 142.275C38.7871 144.091 39.5085 145.832 40.7924 147.115C42.0764 148.399 43.8178 149.12 45.6337 149.12H134.875C136.691 149.12 138.432 148.399 139.716 147.115C141 145.832 141.721 144.091 141.721 142.275C141.721 140.46 141 138.719 139.716 137.435C138.432 136.151 136.691 135.43 134.875 135.43H45.6337Z" fill="#E863FF"/>
<path d="M140.137 166.891H100.754C100.202 166.891 99.673 166.671 99.2827 166.281C98.8924 165.891 98.6731 165.362 98.6731 164.81C98.6731 164.258 98.8924 163.729 99.2827 163.338C99.673 162.948 100.202 162.729 100.754 162.729H140.137C140.689 162.729 141.218 162.948 141.609 163.338C141.999 163.729 142.218 164.258 142.218 164.81C142.218 165.362 141.999 165.891 141.609 166.281C141.218 166.671 140.689 166.891 140.137 166.891Z" fill="#E863FF"/>
</g>
<defs>
<clipPath id="clip0_19_362">
<rect width="233" height="227" fill="white"/>
</clipPath>
</defs>
</svg>
