<svg width="430" height="932" viewBox="0 0 430 932" fill="none" xmlns="http://www.w3.org/2000/svg">
<g clip-path="url(#clip0_3_15)">
<rect width="430" height="932" fill="white"/>
<path fill-rule="evenodd" clip-rule="evenodd" d="M662.224 51.6447L662.293 55.5621L662.275 59.4803L662.168 63.3972L661.974 67.3108L661.692 71.2188L661.321 75.1193L660.862 79.01L660.316 82.8888L659.681 86.7536L658.959 90.6024L658.151 94.4329L657.256 98.2431L656.275 102.031L655.21 105.795L654.061 109.532L652.829 113.241L651.515 116.921L650.121 120.568L648.647 124.181L647.096 127.76L645.468 131.301L643.765 134.803L641.989 138.266L640.141 141.687L638.224 145.065L636.239 148.399L634.188 151.687L632.072 154.929L629.895 158.123L627.658 161.269L625.362 164.366L623.011 167.412L620.606 170.407L618.15 173.351L615.644 176.243L613.091 179.083L610.492 181.87L607.851 184.604L605.169 187.284L602.448 189.911L599.691 192.485L596.899 195.005L594.074 197.471L591.218 199.885L588.334 202.245L585.423 204.552L582.486 206.806L579.526 209.008L576.544 211.157L573.543 213.255L570.522 215.301L567.485 217.297L564.433 219.242L561.367 221.138L558.289 222.984L555.199 224.782L552.1 226.532L548.993 228.235L545.88 229.891L542.76 231.502L539.635 233.068L536.508 234.59L533.377 236.068L530.245 237.503L527.112 238.897L523.98 240.25L520.848 241.562L517.718 242.835L514.591 244.069L511.466 245.265L508.345 246.424L505.227 247.546L502.115 248.631L499.006 249.681L495.904 250.697L492.806 251.678L489.715 252.625L486.629 253.539L483.549 254.42L480.476 255.268L477.409 256.084L474.349 256.869L471.295 257.621L468.247 258.343L465.207 259.033L462.173 259.692L459.145 260.321L456.124 260.918L453.11 261.485L450.102 262.02L447.101 262.525L444.106 262.999L441.118 263.441L438.136 263.852L435.161 264.231L432.192 264.578L429.229 264.892L426.273 265.175L423.324 265.424L420.381 265.64L417.445 265.822L414.515 265.97L411.593 266.083L408.678 266.161L405.77 266.203L402.87 266.21L399.978 266.18L397.094 266.113L394.219 266.008L391.353 265.865L388.496 265.684L385.649 265.464L382.812 265.204L379.985 264.905L377.171 264.565L374.368 264.185L371.577 263.764L368.8 263.302L366.036 262.798L363.287 262.252L360.552 261.664L357.834 261.034L355.132 260.362L352.448 259.647L349.781 258.891L347.133 258.092L344.505 257.251L341.897 256.368L339.311 255.444L336.746 254.478L334.204 253.471L331.685 252.424L329.19 251.336L326.72 250.209L324.276 249.043L321.858 247.838L319.467 246.595L317.104 245.315L314.768 243.999L312.462 242.647L310.185 241.26L307.938 239.839L305.721 238.385L303.535 236.898L301.38 235.381L299.257 233.834L297.165 232.257L295.106 230.653L293.08 229.022L291.085 227.365L289.124 225.683L287.196 223.978L285.3 222.251L283.437 220.503L281.608 218.735L279.81 216.948L278.046 215.144L276.313 213.324L274.613 211.489L272.944 209.64L271.307 207.778L269.702 205.904L268.127 204.019L266.583 202.124L265.069 200.22L263.585 198.307L262.131 196.386L260.707 194.458L259.311 192.524L257.944 190.585L256.605 188.64L255.294 186.69L254.01 184.737L252.754 182.78L251.524 180.82L250.321 178.858L249.144 176.894L247.993 174.928L246.867 172.96L245.765 170.992L244.688 169.023L243.636 167.054L242.606 165.084L241.601 163.116L240.618 161.148L239.657 159.18L238.718 157.215L237.801 155.25L236.905 153.287L236.03 151.326L235.175 149.367L234.34 147.411L233.523 145.457L232.726 143.506L231.947 141.557L231.185 139.612L230.441 137.669L229.713 135.73L229.001 133.794L228.305 131.862L227.623 129.933L226.956 128.008L226.302 126.086L225.662 124.168L225.034 122.253L224.418 120.342L223.813 118.435L223.218 116.531L222.634 114.63L222.058 112.733L221.492 110.838L220.933 108.947L220.383 107.058L219.839 105.171L219.302 103.287L218.771 101.404L218.245 99.5227L217.725 97.6426L217.209 95.7633L216.698 93.8842L216.191 92.005L215.688 90.1253L215.188 88.2446L214.692 86.3624L214.199 84.4782L213.71 82.5916L213.223 80.7019L212.74 78.8087L212.259 76.9115L211.782 75.0097L211.308 73.1029L210.837 71.1904L210.369 69.2718L209.906 67.3465L209.446 65.4141L208.99 63.4739L208.539 61.5256L208.093 59.5686L207.652 57.6025L207.216 55.6268L206.787 53.641L206.363 51.6447L205.946 49.6375L205.535 47.619L205.131 45.5887L204.733 43.5462L204.343 41.491L203.959 39.4228L203.583 37.3411L203.215 35.2455L202.853 33.1355L202.5 31.0106L202.154 28.8705L201.817 26.7146L201.487 24.5426L201.166 22.3538L200.854 20.1479L200.55 17.9245L200.255 15.6829L199.969 13.4227L199.694 11.1436L199.428 8.84496L199.172 6.5264L198.928 4.18748L198.695 1.82777L198.473 -0.553146L198.264 -2.95566L198.068 -5.38013L197.886 -7.82689L197.718 -10.2962L197.566 -12.7885L197.429 -15.3038L197.309 -17.8425L197.208 -20.4046L197.125 -22.9902L197.062 -25.5995L197.02 -28.2323L197 -30.8887L197.004 -33.5684L197.032 -36.2712L197.086 -38.9969L197.168 -41.7451L197.278 -44.5154L197.418 -47.3072L197.59 -50.12L197.795 -52.9529L198.035 -55.8053L198.311 -58.6762L198.624 -61.5646L198.977 -64.4695L199.371 -67.3898L199.807 -70.3241L200.286 -73.2713L200.811 -76.2301L201.382 -79.199L202.002 -82.1766L202.67 -85.1613L203.388 -88.1517L204.158 -91.1461L204.981 -94.1429L205.857 -97.1404L206.788 -100.137L207.774 -103.13L208.816 -106.12L209.915 -109.102L211.071 -112.077L212.286 -115.041L213.56 -117.994L214.892 -120.933L216.284 -123.856L217.736 -126.762L219.247 -129.649L220.819 -132.514L222.45 -135.356L224.141 -138.174L225.892 -140.965L227.703 -143.728L229.573 -146.461L231.502 -149.162L233.489 -151.829L235.535 -154.462L237.638 -157.057L239.798 -159.613L242.015 -162.129L244.288 -164.603L246.616 -167.033L248.998 -169.416L251.435 -171.753L253.924 -174.04L256.464 -176.276L259.056 -178.46L261.698 -180.59L264.389 -182.663L267.127 -184.68L269.911 -186.638L272.741 -188.536L275.615 -190.372L278.531 -192.145L281.489 -193.855L284.486 -195.499L287.521 -197.077L290.593 -198.588L293.699 -200.031L296.839 -201.405L300.011 -202.71L303.213 -203.944L306.442 -205.107L309.699 -206.199L312.98 -207.219L316.285 -208.168L319.61 -209.044L322.955 -209.848L326.318 -210.58L329.697 -211.24L333.091 -211.828L336.497 -212.345L339.914 -212.79L343.34 -213.165L346.773 -213.469L350.213 -213.704L353.657 -213.871L357.104 -213.969L360.552 -214L364.001 -213.965L367.448 -213.864L370.892 -213.699L374.332 -213.471L377.766 -213.181L381.194 -212.83L384.615 -212.419L388.027 -211.949L391.429 -211.422L394.82 -210.839L398.2 -210.202L401.568 -209.511L404.923 -208.768L408.263 -207.975L411.59 -207.132L414.902 -206.242L418.198 -205.305L421.478 -204.323L424.742 -203.298L427.99 -202.23L431.22 -201.122L434.434 -199.974L437.631 -198.788L440.811 -197.565L443.973 -196.306L447.118 -195.012L450.246 -193.685L453.357 -192.326L456.451 -190.936L459.528 -189.515L462.589 -188.065L465.633 -186.587L468.661 -185.081L471.674 -183.548L474.671 -181.99L477.652 -180.406L480.619 -178.797L483.571 -177.165L486.508 -175.508L489.432 -173.829L492.342 -172.127L495.24 -170.404L498.125 -168.658L500.998 -166.892L503.859 -165.105L506.709 -163.298L509.549 -161.471L512.378 -159.624L515.198 -157.757L518.008 -155.871L520.81 -153.965L523.604 -152.039L526.39 -150.095L529.168 -148.13L531.939 -146.146L534.703 -144.141L537.46 -142.116L540.211 -140.071L542.956 -138.004L545.694 -135.916L548.426 -133.806L551.152 -131.673L553.871 -129.516L556.584 -127.336L559.29 -125.131L561.988 -122.901L564.68 -120.644L567.363 -118.361L570.037 -116.05L572.702 -113.711L575.357 -111.342L578.001 -108.943L580.633 -106.513L583.252 -104.052L585.857 -101.558L588.447 -99.03L591.021 -96.4683L593.577 -93.8717L596.114 -91.2395L598.631 -88.5711L601.126 -85.8657L603.597 -83.1229L606.043 -80.3421L608.463 -77.5228L610.854 -74.6647L613.215 -71.7673L615.543 -68.8305L617.839 -65.854L620.098 -62.8377L622.321 -59.7814L624.504 -56.6852L626.645 -53.5491L628.744 -50.3733L630.797 -47.1579L632.803 -43.9032L634.759 -40.6096L636.664 -37.2776L638.516 -33.9076L640.313 -30.5003L642.052 -27.0564L643.732 -23.5766L645.35 -20.0618L646.905 -16.513L648.395 -12.9312L649.818 -9.31746L651.172 -5.67307L652.456 -1.99924L653.667 1.70265L654.805 5.43118L655.867 9.18484L656.853 12.9621L657.76 16.7613L658.588 20.5807L659.335 24.4186L660 28.2732L660.583 32.1427L661.081 36.0251L661.496 39.9184L661.824 43.8209L662.067 47.7303L662.224 51.6447Z" fill="#985884" fill-opacity="0.25"/>
<path fill-rule="evenodd" clip-rule="evenodd" d="M373.309 861.14L375.216 864.13L377.019 867.169L378.714 870.256L380.301 873.388L381.778 876.561L383.143 879.773L384.397 883.02L385.537 886.3L386.563 889.611L387.474 892.948L388.27 896.308L388.951 899.69L389.515 903.089L389.964 906.502L390.298 909.927L390.516 913.36L390.619 916.798L390.609 920.238L390.486 923.678L390.252 927.114L389.907 930.544L389.454 933.964L388.894 937.371L388.229 940.764L387.461 944.14L386.594 947.496L385.628 950.829L384.567 954.138L383.413 957.42L382.17 960.673L380.839 963.896L379.426 967.086L377.931 970.243L376.359 973.363L374.713 976.447L372.996 979.492L371.211 982.498L369.362 985.463L367.451 988.387L365.482 991.269L363.458 994.108L361.382 996.903L359.257 999.654L357.086 1002.36L354.871 1005.02L352.615 1007.64L350.321 1010.21L347.992 1012.74L345.631 1015.22L343.24 1017.66L340.823 1020.05L338.382 1022.4L335.92 1024.7L333.439 1026.97L330.944 1029.19L328.436 1031.37L325.917 1033.51L323.392 1035.61L320.861 1037.67L318.328 1039.7L315.795 1041.69L313.264 1043.65L310.738 1045.57L308.218 1047.47L305.707 1049.33L303.206 1051.17L300.718 1052.98L298.243 1054.77L295.784 1056.54L293.342 1058.29L290.919 1060.01L288.514 1061.73L286.13 1063.42L283.768 1065.11L281.428 1066.78L279.11 1068.44L276.816 1070.1L274.546 1071.75L272.3 1073.4L270.078 1075.05L267.88 1076.69L265.707 1078.34L263.557 1079.99L261.432 1081.64L259.329 1083.3L257.249 1084.97L255.191 1086.65L253.155 1088.34L251.139 1090.03L249.142 1091.74L247.164 1093.47L245.203 1095.2L243.259 1096.96L241.329 1098.72L239.413 1100.51L237.509 1102.31L235.616 1104.13L233.732 1105.96L231.855 1107.81L229.985 1109.68L228.119 1111.57L226.254 1113.47L224.391 1115.39L222.525 1117.33L220.656 1119.28L218.781 1121.24L216.899 1123.21L215.008 1125.2L213.104 1127.19L211.188 1129.19L209.257 1131.2L207.309 1133.21L205.342 1135.22L203.355 1137.24L201.346 1139.24L199.314 1141.25L197.257 1143.25L195.175 1145.24L193.066 1147.21L190.928 1149.18L188.761 1151.12L186.565 1153.05L184.338 1154.95L182.079 1156.84L179.789 1158.69L177.467 1160.52L175.112 1162.32L172.724 1164.08L170.304 1165.81L167.851 1167.49L165.366 1169.14L162.848 1170.75L160.299 1172.31L157.718 1173.82L155.106 1175.29L152.464 1176.71L149.793 1178.07L147.093 1179.38L144.366 1180.63L141.612 1181.83L138.833 1182.96L136.029 1184.04L133.202 1185.06L130.353 1186.01L127.484 1186.9L124.595 1187.73L121.689 1188.49L118.766 1189.19L115.828 1189.82L112.876 1190.38L109.913 1190.88L106.939 1191.3L103.956 1191.67L100.965 1191.96L97.9692 1192.18L94.9687 1192.34L91.9653 1192.43L88.9607 1192.46L85.9564 1192.41L82.9538 1192.3L79.9544 1192.12L76.9596 1191.88L73.9711 1191.57L70.99 1191.2L68.0178 1190.77L65.0559 1190.27L62.1055 1189.71L59.168 1189.09L56.2444 1188.41L53.3361 1187.67L50.4442 1186.87L47.5698 1186.02L44.7138 1185.11L41.8774 1184.15L39.0615 1183.13L36.2669 1182.06L33.4945 1180.95L30.7452 1179.78L28.0195 1178.56L25.3183 1177.3L22.642 1176L19.9914 1174.65L17.3668 1173.26L14.7687 1171.83L12.1974 1170.37L9.65328 1168.86L7.13653 1167.32L4.64735 1165.75L2.18579 1164.15L-0.248081 1162.51L-2.65441 1160.85L-5.03339 1159.16L-7.38549 1157.45L-9.71118 1155.71L-12.0112 1153.96L-14.2865 1152.19L-16.538 1150.4L-18.767 1148.61L-20.9747 1146.8L-23.1628 1144.99L-25.3328 1143.17L-27.4865 1141.35L-29.626 1139.54L-31.7532 1137.73L-33.8703 1135.93L-35.9797 1134.13L-38.0837 1132.35L-40.1849 1130.58L-42.2858 1128.83L-44.3891 1127.1L-46.4974 1125.38L-48.6135 1123.69L-50.7401 1122.02L-52.88 1120.38L-55.0359 1118.76L-57.2105 1117.16L-59.4066 1115.59L-61.6266 1114.05L-63.8732 1112.54L-66.1488 1111.05L-68.4557 1109.59L-70.796 1108.15L-73.1719 1106.74L-75.5852 1105.36L-78.0375 1103.99L-80.5304 1102.65L-83.0651 1101.32L-85.6426 1100.02L-88.2637 1098.72L-90.9288 1097.44L-93.6383 1096.17L-96.3922 1094.91L-99.1903 1093.65L-102.032 1092.39L-104.917 1091.13L-107.844 1089.87L-110.811 1088.59L-113.818 1087.31L-116.862 1086.01L-119.942 1084.69L-123.056 1083.35L-126.2 1081.99L-129.372 1080.6L-132.569 1079.17L-135.789 1077.71L-139.026 1076.22L-142.279 1074.68L-145.543 1073.1L-148.813 1071.47L-152.087 1069.8L-155.358 1068.07L-158.624 1066.29L-161.879 1064.45L-165.119 1062.55L-168.338 1060.6L-171.532 1058.58L-174.696 1056.49L-177.825 1054.35L-180.913 1052.13L-183.956 1049.85L-186.948 1047.5L-189.885 1045.09L-192.761 1042.6L-195.572 1040.05L-198.312 1037.43L-200.978 1034.75L-203.563 1032L-206.065 1029.18L-208.478 1026.3L-210.798 1023.35L-213.022 1020.35L-215.146 1017.28L-217.165 1014.16L-219.077 1010.99L-220.879 1007.76L-222.568 1004.48L-224.142 1001.16L-225.597 997.786L-226.933 994.375L-228.147 990.926L-229.239 987.441L-230.206 983.925L-231.049 980.38L-231.767 976.809L-232.36 973.217L-232.829 969.607L-233.175 965.982L-233.4 962.346L-233.505 958.702L-233.492 955.053L-233.365 951.403L-233.126 947.755L-232.779 944.111L-232.326 940.476L-231.773 936.851L-231.122 933.239L-230.379 929.643L-229.548 926.064L-228.634 922.505L-227.641 918.968L-226.575 915.454L-225.44 911.964L-224.242 908.5L-222.985 905.063L-221.675 901.652L-220.317 898.27L-218.917 894.916L-217.478 891.59L-216.006 888.292L-214.506 885.022L-212.982 881.779L-211.438 878.563L-209.879 875.373L-208.309 872.207L-206.73 869.066L-205.148 865.947L-203.564 862.849L-201.981 859.772L-200.402 856.714L-198.829 853.673L-197.264 850.648L-195.708 847.637L-194.161 844.64L-192.625 841.655L-191.1 838.681L-189.588 835.715L-188.087 832.758L-186.598 829.808L-185.122 826.863L-183.657 823.923L-182.203 820.986L-180.761 818.052L-179.329 815.119L-177.906 812.186L-176.491 809.253L-175.083 806.32L-173.682 803.385L-172.285 800.447L-170.892 797.508L-169.5 794.565L-168.109 791.62L-166.715 788.671L-165.319 785.72L-163.918 782.765L-162.51 779.808L-161.093 776.849L-159.666 773.887L-158.227 770.924L-156.773 767.96L-155.303 764.996L-153.815 762.032L-152.307 759.071L-150.778 756.111L-149.225 753.156L-147.647 750.205L-146.042 747.26L-144.408 744.323L-142.744 741.394L-141.048 738.476L-139.32 735.569L-137.557 732.675L-135.758 729.797L-133.922 726.934L-132.048 724.09L-130.134 721.265L-128.181 718.462L-126.186 715.682L-124.15 712.927L-122.071 710.199L-119.949 707.499L-117.784 704.829L-115.575 702.192L-113.321 699.588L-111.023 697.02L-108.68 694.49L-106.293 691.998L-103.861 689.547L-101.385 687.138L-98.8646 684.773L-96.3009 682.453L-93.694 680.18L-91.0447 677.954L-88.3536 675.778L-85.6214 673.653L-82.849 671.579L-80.0372 669.558L-77.1871 667.59L-74.2996 665.677L-71.3757 663.819L-68.4167 662.018L-65.4236 660.274L-62.3975 658.587L-59.3398 656.959L-56.2515 655.39L-53.134 653.88L-49.9886 652.43L-46.8164 651.041L-43.6189 649.714L-40.3972 648.447L-37.1526 647.243L-33.8866 646.1L-30.6004 645.021L-27.2952 644.004L-23.9725 643.051L-20.6334 642.161L-17.2794 641.335L-13.9117 640.574L-10.5317 639.877L-7.14061 639.244L-3.73977 638.677L-0.33055 638.175L3.08582 637.738L6.50795 637.367L9.93457 637.062L13.3643 636.824L16.7959 636.651L20.2279 636.545L23.659 636.505L27.0879 636.532L30.5133 636.625L33.9337 636.786L37.3478 637.012L40.7543 637.306L44.1518 637.666L47.5389 638.093L50.9143 638.587L54.2766 639.146L57.6243 639.772L60.9563 640.463L64.2709 641.22L67.567 642.041L70.8432 642.928L74.098 643.878L77.3303 644.892L80.5386 645.969L83.7216 647.108L86.8781 648.309L90.0068 649.57L93.1064 650.89L96.1759 652.27L99.2139 653.707L102.219 655.2L105.191 656.748L108.128 658.351L111.03 660.005L113.894 661.711L116.721 663.467L119.51 665.27L122.26 667.119L124.969 669.013L127.638 670.949L130.266 672.926L132.852 674.942L135.396 676.995L137.898 679.082L140.357 681.202L142.774 683.353L145.147 685.531L147.477 687.737L149.764 689.966L152.009 692.216L154.211 694.487L156.371 696.774L158.49 699.076L160.567 701.391L162.604 703.717L164.6 706.051L166.558 708.391L168.477 710.734L170.36 713.079L172.206 715.423L174.018 717.762L175.796 720.095L177.544 722.419L179.262 724.731L180.952 727.028L182.617 729.307L184.259 731.565L185.88 733.801L187.483 736.011L189.07 738.193L190.645 740.345L192.209 742.464L193.766 744.549L195.318 746.596L196.869 748.606L198.422 750.575L199.979 752.504L201.544 754.389L203.12 756.231L204.709 758.029L206.315 759.782L207.94 761.49L209.589 763.152L211.262 764.769L212.964 766.341L214.697 767.868L216.463 769.351L218.266 770.791L220.107 772.189L221.988 773.546L223.913 774.863L225.883 776.142L227.899 777.384L229.965 778.592L232.082 779.767L234.251 780.911L236.474 782.027L238.752 783.116L241.086 784.181L243.478 785.225L245.927 786.252L248.433 787.263L250.998 788.262L253.619 789.253L256.298 790.239L259.031 791.223L261.82 792.21L264.661 793.202L267.554 794.205L270.495 795.22L273.483 796.253L276.515 797.307L279.588 798.386L282.699 799.493L285.844 800.633L289.019 801.807L292.221 803.021L295.446 804.277L298.689 805.579L301.946 806.929L305.213 808.33L308.483 809.786L311.753 811.298L315.017 812.869L318.271 814.501L321.508 816.196L324.725 817.955L327.915 819.78L331.074 821.673L334.195 823.634L337.275 825.663L340.307 827.762L343.287 829.93L346.21 832.168L349.07 834.475L351.864 836.851L354.586 839.295L357.233 841.806L359.799 844.383L362.281 847.025L364.676 849.729L366.979 852.495L369.188 855.32L371.298 858.203L373.309 861.14Z" fill="#985884" fill-opacity="0.34"/>
</g>
<defs>
<clipPath id="clip0_3_15">
<rect width="430" height="932" fill="white"/>
</clipPath>
</defs>
</svg>
